HIERARCHY
ROOT hips
{
  OFFSET 0 10.6860622 2.3727825e-15
  CHANNELS 6 Xposition Yposition Zposition Yrotation Xrotation Zrotation
  JOINT leftUpperLeg
  {
    OFFSET 0.6642549969 -0.9402397400000004 0
    CHANNELS 3 Yrotation Xrotation Zrotation
    JOINT leftLowerLeg
    {
      OFFSET 0 -3.997221335632195 0
      CHANNELS 3 Yrotation Xrotation Zrotation
      JOINT leftFoot
      {
        OFFSET -0.13777839790000004 -4.6145792000000005 -0.22186036399999998
        CHANNELS 3 Yrotation Xrotation Zrotation
        JOINT leftToes
        {
          OFFSET -0.03777410834999995 -0.9130806927000008 0.85230013
          CHANNELS 3 Yrotation Xrotation Zrotation
          End Site
          {
            OFFSET -0.03777410834999995 -0.9130806927000008 0.85230013
          }
        }
      }
    }
  }
  JOINT rightUpperLeg
  {
    OFFSET -0.6642778626 -0.9402397400000004 0
    CHANNELS 3 Yrotation Xrotation Zrotation
    JOINT rightLowerLeg
    {
      OFFSET 0 -3.997221452859387 0
      CHANNELS 3 Yrotation Xrotation Zrotation
      JOINT rightFoot
      {
        OFFSET 0.1377926176 -4.6145792000000005 -0.22185782299999995
        CHANNELS 3 Yrotation Xrotation Zrotation
        JOINT rightToes
        {
          OFFSET 0.037780746850000047 -0.9130806927000008 0.85230167
          CHANNELS 3 Yrotation Xrotation Zrotation
          End Site
          {
            OFFSET 0.037780746850000047 -0.9130806927000008 0.85230167
          }
        }
      }
    }
  }
  JOINT spine
  {
    OFFSET 0 0.13988381660000015 0
    CHANNELS 3 Yrotation Xrotation Zrotation
    JOINT chest
    {
      OFFSET 0 0.6191039003973773 0
      CHANNELS 3 Yrotation Xrotation Zrotation
      JOINT upperChest
      {
        OFFSET 0 0.9855186130586943 0
        CHANNELS 3 Yrotation Xrotation Zrotation
        JOINT leftShoulder
        {
          OFFSET 0.1807663869 1.5087829790000005 0
          CHANNELS 3 Yrotation Xrotation Zrotation
          JOINT leftUpperArm
          {
            OFFSET 0.5985063006419806 0 0
            CHANNELS 3 Yrotation Xrotation Zrotation
            JOINT leftLowerArm
            {
              OFFSET 2.2993332369501065 0 0
              CHANNELS 3 Yrotation Xrotation Zrotation
              JOINT leftHand
              {
                OFFSET 2.395047042602395 0 0
                CHANNELS 3 Yrotation Xrotation Zrotation
                JOINT leftIndexProximal
                {
                  OFFSET 0.5766295810000004 0.04556643899499946 0.17265095988184
                  CHANNELS 3 Yrotation Xrotation Zrotation
                  JOINT leftIndexIntermediate
                  {
                    OFFSET 0.2957229000000008 -0.019352197700001517 -0.007932640616999987
                    CHANNELS 3 Yrotation Xrotation Zrotation
                    JOINT leftIndexDistal
                    {
                      OFFSET 0.19008243099999922 -0.012484908149998475 -0.002786250786000012
                      CHANNELS 3 Yrotation Xrotation Zrotation
                      End Site
                      {
                        OFFSET 0.19008243099999922 -0.012484908149998475 -0.002786250786000012
                      }
                    }
                  }
                }
                JOINT leftMiddleProximal
                {
                  OFFSET 0.5834975091000001 0.0524350405149987 0.02204081888183999
                  CHANNELS 3 Yrotation Xrotation Zrotation
                  JOINT leftMiddleIntermediate
                  {
                    OFFSET 0.33880573540000003 -0.019871473270000717 -0.00000971183179999946
                    CHANNELS 3 Yrotation Xrotation Zrotation
                    JOINT leftMiddleDistal
                    {
                      OFFSET 0.20676022730000088 -0.012221336379999448 0.0001471936708000235
                      CHANNELS 3 Yrotation Xrotation Zrotation
                      End Site
                      {
                        OFFSET 0.20676022730000088 -0.012221336379999448 0.0001471936708000235
                      }
                    }
                  }
                }
                JOINT leftLittleProximal
                {
                  OFFSET 0.5344154683999995 -0.012880921405001189 -0.24414037221816004
                  CHANNELS 3 Yrotation Xrotation Zrotation
                  JOINT leftLittleIntermediate
                  {
                    OFFSET 0.21758961730000093 -0.011650919939999227 0.011893592810000034
                    CHANNELS 3 Yrotation Xrotation Zrotation
                    JOINT leftLittleDistal
                    {
                      OFFSET 0.1475273964999999 -0.008152365682999818 0.006001092492999946
                      CHANNELS 3 Yrotation Xrotation Zrotation
                      End Site
                      {
                        OFFSET 0.1475273964999999 -0.008152365682999818 0.006001092492999946
                      }
                    }
                  }
                }
                JOINT leftRingProximal
                {
                  OFFSET 0.5799399463000003 0.026911854694997794 -0.12150566991816003
                  CHANNELS 3 Yrotation Xrotation Zrotation
                  JOINT leftRingIntermediate
                  {
                    OFFSET 0.26167887460000006 -0.013480186499999602 0.010996293000000053
                    CHANNELS 3 Yrotation Xrotation Zrotation
                    JOINT leftRingDistal
                    {
                      OFFSET 0.17667108799999987 -0.008990287899999228 0.0055541023999999065
                      CHANNELS 3 Yrotation Xrotation Zrotation
                      End Site
                      {
                        OFFSET 0.17667108799999987 -0.008990287899999228 0.0055541023999999065
                      }
                    }
                  }
                }
                JOINT leftThumbProximal
                {
                  OFFSET 0.11018806699999972 -0.09448718900500053 0.17047963138184
                  CHANNELS 3 Yrotation Xrotation Zrotation
                  JOINT leftThumbIntermediate
                  {
                    OFFSET 0.31062601459999983 -0.08126270900000132 0.15443142000000007
                    CHANNELS 3 Yrotation Xrotation Zrotation
                    JOINT leftThumbDistal
                    {
                      OFFSET 0.21627175790000086 -0.08833193599999878 0.018771167799999988
                      CHANNELS 3 Yrotation Xrotation Zrotation
                      End Site
                      {
                        OFFSET 0.21627175790000086 -0.08833193599999878 0.018771167799999988
                      }
                    }
                  }
                }
              }
            }
          }
        }
        JOINT neck
        {
          OFFSET 0 1.5463305265074576 0
          CHANNELS 3 Yrotation Xrotation Zrotation
          JOINT head
          {
            OFFSET 0 0.8456443600000344 0
            CHANNELS 3 Yrotation Xrotation Zrotation
            JOINT leftEye
            {
              OFFSET 0.30408573140000006 0.5104519199999995 0.1276382305
              CHANNELS 3 Yrotation Xrotation Zrotation
              End Site
              {
                OFFSET 0.30408573140000006 0.5104519199999995 0.1276382305
              }
            }
            JOINT rightEye
            {
              OFFSET -0.30409491089999996 0.5104519199999995 0.1276379445
              CHANNELS 3 Yrotation Xrotation Zrotation
              End Site
              {
                OFFSET -0.30409491089999996 0.5104519199999995 0.1276379445
              }
            }
            JOINT jaw
            {
              OFFSET -3.155239131000001e-7 -0.11984121820000082 0.60178107
              CHANNELS 3 Yrotation Xrotation Zrotation
              End Site
              {
                OFFSET -3.155239131000001e-7 -0.11984121820000082 0.60178107
              }
            }
          }
        }
        JOINT rightShoulder
        {
          OFFSET -0.1807303465 1.5087829790000005 0
          CHANNELS 3 Yrotation Xrotation Zrotation
          JOINT rightUpperArm
          {
            OFFSET -0.5985063796536958 0 0
            CHANNELS 3 Yrotation Xrotation Zrotation
            JOINT rightLowerArm
            {
              OFFSET -2.2993322059002854 0 0
              CHANNELS 3 Yrotation Xrotation Zrotation
              JOINT rightHand
              {
                OFFSET -2.395045314457259 0 0
                CHANNELS 3 Yrotation Xrotation Zrotation
                JOINT rightIndexProximal
                {
                  OFFSET -0.5764487688300002 0.0441371204405987 0.17361932004999997
                  CHANNELS 3 Yrotation Xrotation Zrotation
                  JOINT rightIndexIntermediate
                  {
                    OFFSET -0.29573011380000047 -0.01934826376999843 -0.007698921482999974
                    CHANNELS 3 Yrotation Xrotation Zrotation
                    JOINT rightIndexDistal
                    {
                      OFFSET -0.19008373999999884 -0.012503266380000655 -0.0026365778999999897
                      CHANNELS 3 Yrotation Xrotation Zrotation
                      End Site
                      {
                        OFFSET -0.19008373999999884 -0.012503266380000655 -0.0026365778999999897
                      }
                    }
                  }
                }
                JOINT rightMiddleProximal
                {
                  OFFSET -0.5834852037300005 0.05211639405060153 0.02307162440000001
                  CHANNELS 3 Yrotation Xrotation Zrotation
                  JOINT rightMiddleIntermediate
                  {
                    OFFSET -0.33880114510000003 -0.019952774050000954 0.0002455003561999819
                    CHANNELS 3 Yrotation Xrotation Zrotation
                    JOINT rightMiddleDistal
                    {
                      OFFSET -0.20675694929999955 -0.012273788999999091 0.00030209124000002766
                      CHANNELS 3 Yrotation Xrotation Zrotation
                      End Site
                      {
                        OFFSET -0.20675694929999955 -0.012273788999999091 0.00030209124000002766
                      }
                    }
                  }
                }
                JOINT rightLittleProximal
                {
                  OFFSET -0.5346811737299992 -0.011214256288399227 -0.24363941305000003
                  CHANNELS 3 Yrotation Xrotation Zrotation
                  JOINT rightLittleIntermediate
                  {
                    OFFSET -0.21757715980000092 -0.011771559690000988 0.01201554387
                    CHANNELS 3 Yrotation Xrotation Zrotation
                    JOINT rightLittleDistal
                    {
                      OFFSET -0.1475201849000004 -0.00822055339600003 0.006082065407000015
                      CHANNELS 3 Yrotation Xrotation Zrotation
                      End Site
                      {
                        OFFSET -0.1475201849000004 -0.00822055339600003 0.006082065407000015
                      }
                    }
                  }
                }
                JOINT rightRingProximal
                {
                  OFFSET -0.5800810755299999 0.027657985680600072 -0.12066365025000003
                  CHANNELS 3 Yrotation Xrotation Zrotation
                  JOINT rightRingIntermediate
                  {
                    OFFSET -0.26166445029999974 -0.013623118409999302 0.011164098990000045
                    CHANNELS 3 Yrotation Xrotation Zrotation
                    JOINT rightRingDistal
                    {
                      OFFSET -0.17666387530000027 -0.009072900100000503 0.005668185599999959
                      CHANNELS 3 Yrotation Xrotation Zrotation
                      End Site
                      {
                        OFFSET -0.17666387530000027 -0.009072900100000503 0.005668185599999959
                      }
                    }
                  }
                }
                JOINT rightThumbProximal
                {
                  OFFSET -0.10997596379000074 -0.09577489355940072 0.16989765924999997
                  CHANNELS 3 Yrotation Xrotation Zrotation
                  JOINT rightThumbIntermediate
                  {
                    OFFSET -0.31036620999999986 -0.08229339117999834 0.15440884469999996
                    CHANNELS 3 Yrotation Xrotation Zrotation
                    JOINT rightThumbDistal
                    {
                      OFFSET -0.21631306399999906 -0.08825326400000111 0.018656797720000014
                      CHANNELS 3 Yrotation Xrotation Zrotation
                      End Site
                      {
                        OFFSET -0.21631306399999906 -0.08825326400000111 0.018656797720000014
                      }
                    }
                  }
                }
              }
            }
          }
        }
      }
    }
  }
}
MOTION
Frames: 9
Frame Time: 0.03333333333333333
0 11.682712981546562 0 0 0 0 0 0 -5.826343164929014 -0.3712483961610101 -3.6333298826370974 5.838118207697276 0 0 0 0 0 0 0 0 5.826343164929014 0.3712483961610101 -3.6333298826370974 -5.838118207697276 0 0 0 0 0 0 0 -4.610651315171937 0 0 3.0831277533083026 0 0 0 0 0 1.5275236235667615 0 0 0 0 0 0 0 0 0 0 0 0 0 0 0 0 0 0 0 0 0 0 0 0 0 0 0 0 0 0 0 0 0 0 0 0 0 0 0 0 0 0 0 0 0 0 0 0 0 0 0 0 0 0 0 0 1.5275236235667615 0 0 0 0 0 0 0 0 0 0 0 0 0 0 1.5275236235667615 0 0 0 0 0 0 0 0 0 0 0 0 0 0 0 0 0 0 0 0 0 0 0 0 0 0 0 0 0 0 0 0 0 0 0 0 0 0 0 0 0 0 0 0 0 0 0 0 0 0 0 0 0 0 0
0 -5.971376979469339 0 0 -86.01488400818097 0 11.297158646994736 2.1263701575256118 -2.96035639967696 5.706653652031243 -5.870231355113803 4.347638655979949 7.2431933798008945 10.9632996246608 -7.701761366016959 0 0 0 11.684728619653415 -38.19031311124793 -9.075193530210262 -57.12370784341824 61.96948865075194 -56.64313709235753 0.8113532645957398 45.80437889692649 -0.4563961152808031 0 0 0 0 -3.612218268957574 0 0 -4.919521294341706 0 0 0 0 0.04690152400041854 1.6557643601135228 20.998103404636524 -45.83649029708529 17.21793712319877 -82.01307380355139 -53.003691482555375 1.9980570563565987 -0.0017060372558116608 -5.479589791004698 -1.9940818220389949 10.961543291702682 0 0 0 0 0 0 0 0 0 0 0 0 0 0 0 0 0 0 0 0 0 0 0 0 0 0 0 0 0 0 0 0 0 0 0 0 0 0 0 0 0 0 0 0 0 -14.408025770118526 5.817092536627518 16.070209786841502 7.62579248257501 11.77933758845478 -19.623457346065386 0 0 0 0 0 0 0 0 0 2.8551007427603605 -11.618345640178882 -20.48392619590968 88.44223220004747 -50.81467207537323 -78.79255376897822 122.99465247567434 -4.999009793850172 -0.0022846905223439223 4.100510235547613 -2.8599409433356007 -1.9979817588176711 0 0 0 0 0 0 0 0 0 0 0 0 0 0 0 0 0 0 0 0 0 0 0 0 0 0 0 0 0 0 0 0 0 0 0 0 0 0 0 0 0 0 0 0 0
0 -5.971376979469339 0 0 -86.01488400818097 0 11.297158646994736 2.1263701575256118 -2.96035639967696 5.706653652031243 -5.870231355113803 4.347638655979949 7.2431933798008945 10.9632996246608 -7.701761366016959 0 0 0 11.684728619653415 -38.19031311124793 -9.075193530210262 -57.123725073800806 61.96948865075194 -56.643153227966486 0.8113532645957398 45.804383795856666 -0.4563960394883438 0 0 0 0 -3.612218268957574 0 0 -4.919521294341706 0 0 0 0 0.046901527336863875 1.6557643601135228 20.998106223721535 -45.83649784376719 17.21792997255911 -82.01308049644918 -53.00369626809265 1.9980570563565987 -0.0017060372558116608 -5.479589791004698 -1.9940818220389949 10.961543291702682 0 0 0 0 0 0 0 0 0 0 0 0 0 0 0 0 0 0 0 0 0 0 0 0 0 0 0 0 0 0 0 0 0 0 0 0 0 0 0 0 0 0 0 0 0 -14.408028286682466 5.817093394820414 16.070211436156466 7.62579248257501 11.77934020487473 -19.62345898903761 0 0 0 0 0 0 0 0 0 2.8551007427603605 -11.618345640178882 -20.48392619590968 88.44223220004747 -50.81467207537323 -78.79254940468601 122.99465247567434 -4.999009793850172 -0.0022846905223439223 4.100511088197711 -2.8599409433356007 -1.9979817588176711 0 0 0 0 0 0 0 0 0 0 0 0 0 0 0 0 0 0 0 0 0 0 0 0 0 0 0 0 0 0 0 0 0 0 0 0 0 0 0 0 0 0 0 0 0
0 -5.971376979469339 0 0 -86.01488400818097 0 11.297158646994736 2.1263690895731866 -2.960356612982409 5.706652798010444 -5.870231355113803 4.347638655979949 7.2431933798008945 10.9632996246608 -7.701761366016959 0 0 0 11.684728619653415 -38.19031311124793 -9.075193530210262 -57.12370784341824 61.96948865075194 -56.64313709235753 0.8113531952253623 45.80437399799674 -0.4563961910732494 0 0 0 0 -3.612218268957574 0 0 -4.9195204374112445 0 0 0 0 0.04690152400041854 1.6557643601135228 20.998103404636524 -45.83649029708529 17.21793712319877 -82.01307380355139 -53.00368396781064 1.9980570563565987 -0.0017060372558116608 -5.479589365811133 -1.9940809677480127 10.961542452998222 0 0 0 0 0 0 0 0 0 0 0 0 0 0 0 0 0 0 0 0 0 0 0 0 0 0 0 0 0 0 0 0 0 0 0 0 0 0 0 0 0 0 0 0 0 -14.408025770118526 5.817091678434623 16.070205537968807 7.62579248257501 11.779336716314802 -19.623457346065386 0 0 0 0 0 0 0 0 0 2.855101395673392 -11.618344768546194 -20.48392619590968 88.44223205311135 -50.81467748045095 -78.79255139293684 122.99465247567434 -4.999009793850172 -0.0022846905223439223 4.100510235547613 -2.8599409433356007 -1.9979817588176711 0 0 0 0 0 0 0 0 0 0 0 0 0 0 0 0 0 0 0 0 0 0 0 0 0 0 0 0 0 0 0 0 0 0 0 0 0 0 0 0 0 0 0 0 0
0 -5.971376979469339 0 0 -86.01488400818097 0 11.297158646994736 2.1263701575256118 -2.96035639967696 5.706653652031243 -5.870231355113803 4.347638655979949 7.2431933798008945 10.9632996246608 -7.701761366016959 0 0 0 11.684728619653415 -38.19031311124793 -9.075193530210262 -57.12370784341824 61.96948865075194 -56.64313909026148 0.8113532645957398 45.80437889692649 -0.4563961152808031 0 0 0 0 -3.612218268957574 0 0 -4.919521294341706 0 0 0 0 0.04690152400041854 1.6557643601135228 20.998103404636524 -45.83649029708529 17.21793712319877 -82.01307380355139 -53.003691482555375 1.9980570563565987 -0.0017060372558116608 -5.479589791004698 -1.9940818220389949 10.961543291702682 0 0 0 0 0 0 0 0 0 0 0 0 0 0 0 0 0 0 0 0 0 0 0 0 0 0 0 0 0 0 0 0 0 0 0 0 0 0 0 0 0 0 0 0 0 -14.408025770118526 5.817092536627518 16.070209786841502 7.62579248257501 11.77933758845478 -19.623457346065386 0 0 0 0 0 0 0 0 0 2.8551007427603605 -11.618345640178882 -20.48392619590968 88.44223220004747 -50.81467207537323 -78.79255376897822 122.99465247567434 -4.999009793850172 -0.0022846905223439223 4.100510235547613 -2.8599409433356007 -1.9979817588176711 0 0 0 0 0 0 0 0 0 0 0 0 0 0 0 0 0 0 0 0 0 0 0 0 0 0 0 0 0 0 0 0 0 0 0 0 0 0 0 0 0 0 0 0 0
0 -5.971376979469339 0 0 -86.01488400818097 0 11.297159484802897 2.1263701575256118 -2.96035639967696 5.706653652031243 -5.870231355113803 4.347638655979949 7.2431933798008945 10.9632996246608 -7.701761366016959 0 0 0 11.684728619653415 -38.19031311124793 -9.075195824590327 -57.12370784341824 61.96948865075194 -56.64313909026148 0.8113532645957398 45.80437889692649 -0.4563961152808031 0 0 0 0 -3.612218268957574 0 0 -4.919521294341706 0 0 0 0 0.04690152400041854 1.6557643601135228 20.998103404636524 -45.83649535281224 17.217931760219 -82.01308226676846 -53.003691482555375 1.9980570563565987 -0.0017060372558116608 -5.479589791004698 -1.9940818220389949 10.961543291702682 0 0 0 0 0 0 0 0 0 0 0 0 0 0 0 0 0 0 0 0 0 0 0 0 0 0 0 0 0 0 0 0 0 0 0 0 0 0 0 0 0 0 0 0 0 -14.408028286682466 5.817093394820414 16.070211436156466 7.62579248257501 11.77933846059476 -19.623457346065386 0 0 0 0 0 0 0 0 0 2.8551007427603605 -11.618345640178882 -20.48392619590968 88.44223220004747 -50.81467207537323 -78.79255376897822 122.99465247567434 -4.999009793850172 -0.0022846905223439223 4.100510235547613 -2.8599409433356007 -1.9979817588176711 0 0 0 0 0 0 0 0 0 0 0 0 0 0 0 0 0 0 0 0 0 0 0 0 0 0 0 0 0 0 0 0 0 0 0 0 0 0 0 0 0 0 0 0 0
0 -5.971376979469339 0 0 -86.01488400818097 0 11.297158646994736 2.1263701575256118 -2.96035639967696 5.706653652031243 -5.870231355113803 4.347638655979949 7.243192085742607 10.963297885370071 -7.701760504216606 0 0 0 11.684727555885262 -38.19031311124793 -9.075191921188063 -57.12370784341824 61.96948865075194 -56.64313909026148 0.8113532645957398 45.80437889692649 -0.4563961152808031 0 0 0 0 -3.612218268957574 0 0 -4.9195204374112445 0 0 0 0 0.04690152400041854 1.6557643601135228 20.998103404636524 -45.83649029708529 17.21793712319877 -82.01307380355139 -53.003691482555375 1.9980570563565987 -0.0017060372558116608 -5.479589791004698 -1.9940818220389949 10.961543291702682 0 0 0 0 0 0 0 0 0 0 0 0 0 0 0 0 0 0 0 0 0 0 0 0 0 0 0 0 0 0 0 0 0 0 0 0 0 0 0 0 0 0 0 0 0 -14.408025770118526 5.81709210753107 16.070207187283735 7.62579248257501 11.779336716314802 -19.623457346065386 0 0 0 0 0 0 0 0 0 2.8551007427603605 -11.618345640178882 -20.48392619590968 88.44223220004747 -50.81467207537323 -78.79255376897822 122.99463537419275 -4.999009793850172 -0.0022846905223439223 4.100510235547613 -2.8599409433356007 -1.9979817588176711 0 0 0 0 0 0 0 0 0 0 0 0 0 0 0 0 0 0 0 0 0 0 0 0 0 0 0 0 0 0 0 0 0 0 0 0 0 0 0 0 0 0 0 0 0
0 -5.971376979469339 0 0 -86.01488400818097 0 11.297158646994736 2.1263701575256118 -2.96035639967696 5.706653652031243 -5.870231355113803 4.347638655979949 7.2431933798008945 10.9632996246608 -7.701761366016959 0 0 0 11.684728619653415 -38.19031311124793 -9.075193530210262 -57.12370784341824 61.96948865075194 -56.64313709235753 0.8113532645957398 45.80437889692649 -0.4563961152808031 0 0 0 0 -3.612218268957574 0 0 -4.919521294341706 0 0 0 0 0.04690152400041854 1.6557643601135228 20.998103404636524 -45.83649535281224 17.21793712319877 -82.01307468871106 -53.00369626809265 1.9980570563565987 -0.0017060372558116608 -5.479589791004698 -1.9940818220389949 10.961543291702682 0 0 0 0 0 0 0 0 0 0 0 0 0 0 0 0 0 0 0 0 0 0 0 0 0 0 0 0 0 0 0 0 0 0 0 0 0 0 0 0 0 0 0 0 0 -14.408025770118526 5.817092536627518 16.070209786841502 7.62579248257501 11.77933758845478 -19.623457346065386 0 0 0 0 0 0 0 0 0 2.8551007427603605 -11.618345640178882 -20.48392619590968 88.44223220004747 -50.81467207537323 -78.79255376897822 122.99465247567434 -4.999009793850172 -0.0022846905223439223 4.100510235547613 -2.8599409433356007 -1.9979817588176711 0 0 0 0 0 0 0 0 0 0 0 0 0 0 0 0 0 0 0 0 0 0 0 0 0 0 0 0 0 0 0 0 0 0 0 0 0 0 0 0 0 0 0 0 0
0 -5.971376979469339 0 0 -86.0149331484234 0 11.297159484802897 2.1263701575256118 -2.96035639967696 5.706653652031243 -5.870231355113803 4.347638655979949 7.243192085742607 10.9632996246608 -7.701762227817308 0 0 0 11.684728619653415 -38.19031311124793 -9.075193530210262 -57.12372310142319 61.969495917813134 -56.64315123006311 0.8113532645957398 45.804383795856666 -0.4563960394883438 0 0 0 0 -3.612218268957574 0 0 -4.919521294341706 0 0 0 0 0.04690152400041854 1.6557643601135228 20.998103404636524 -45.83649535281224 17.217931760219 -82.01308226676846 -53.003691482555375 1.9980570563565987 -0.0017060372558116608 -5.479590641391826 -1.9940816084662492 10.961543291702682 0 0 0 0 0 0 0 0 0 0 0 0 0 0 0 0 0 0 0 0 0 0 0 0 0 0 0 0 0 0 0 0 0 0 0 0 0 0 0 0 0 0 0 0 0 -14.408025770118526 5.817092965723966 16.070211436156466 7.62579248257501 11.77933758845478 -19.623457346065386 0 0 0 0 0 0 0 0 0 2.855101178035715 -11.618345640178882 -20.483927828949085 88.44223220004747 -50.81467207537323 -78.79255443172845 122.99465247567434 -4.999011079400615 -0.002283686604543369 4.100510235547613 -2.8599409433356007 -1.9979817588176711 0 0 0 0 0 0 0 0 0 0 0 0 0 0 0 0 0 0 0 0 0 0 0 0 0 0 0 0 0 0 0 0 0 0 0 0 0 0 0 0 0 0 0 0 0
